<?xml version="1.0"?>
<svg xmlns="http://www.w3.org/2000/svg" xmlns:xlink="http://www.w3.org/1999/xlink" viewBox="0 0 512 512" width="512" height="512"><linearGradient id="a" gradientUnits="userSpaceOnUse" x1="302.67" x2="302.67" y1="34" y2="483.782"><stop offset="0" stop-color="#00efd1"/><stop offset="1" stop-color="#00acea"/></linearGradient><linearGradient id="b" x1="156.834" x2="156.834" xlink:href="#a" y1="34" y2="483.782"/><linearGradient id="c" x1="125.724" x2="125.724" xlink:href="#a" y1="34" y2="483.782"/><linearGradient id="d" x1="94.613" x2="94.613" xlink:href="#a" y1="34" y2="483.782"/><path d="m327.955 150.481a9.874 9.874 0 0 0 -16.955 7v47.519h-123.028a9.8 9.8 0 0 0 -10 9.753l-.053 82.842a9.315 9.315 0 0 0 2.927 6.774 9.729 9.729 0 0 0 7.073 2.631h123.081v47.517a9.915 9.915 0 0 0 6.126 9.257 9.738 9.738 0 0 0 3.733.744 9.95 9.95 0 0 0 7.12-3l96.586-98.518a10 10 0 0 0 0-14zm3.045 179.554v-32.554c0-5.523-4.663-10.481-10.186-10.481h-122.888l.04-62h122.848c5.523 0 10.186-4.958 10.186-10.481v-32.554l72.594 74.035z" fill="url(#a)"/><path d="m156.866 205h-.006a9.8 9.8 0 0 0 -10 9.753l-.051 82.6a9.7 9.7 0 0 0 9.991 9.647h.006a9.8 9.8 0 0 0 10-9.753l.051-82.6a9.7 9.7 0 0 0 -9.991-9.647z" fill="url(#b)"/><path d="m125.756 205h-.006a9.8 9.8 0 0 0 -10 9.753l-.052 82.6a9.7 9.7 0 0 0 9.994 9.647h.006a9.8 9.8 0 0 0 10-9.753l.052-82.6a9.7 9.7 0 0 0 -9.994-9.647z" fill="url(#c)"/><path d="m94.645 205h-.006a9.8 9.8 0 0 0 -10 9.753l-.052 82.6a9.7 9.7 0 0 0 9.994 9.647h.006a9.8 9.8 0 0 0 10-9.753l.052-82.6a9.7 9.7 0 0 0 -9.994-9.647z" fill="url(#d)"/></svg>
