<svg height="512pt" viewBox="-17 0 512 512.017" width="512pt" xmlns="http://www.w3.org/2000/svg"><path d="M384.18 324.281H94.047C.18 289.977 8.715 221.371 8.715 221.371c0-148.14 155.73-197.719 211.113-210.605a90.747 90.747 0 016.656-1.278 83.318 83.318 0 0131.828 1.278c55.383 12.886 211.2 62.464 211.2 210.605 0 0 8.535 68.606-85.332 102.91zm0 0" fill="#b2cdf8"/><path d="M358.922 324.281H94.047C.18 289.977 8.715 221.371 8.715 221.371c0-148.14 155.73-197.719 211.113-210.605a90.747 90.747 0 016.656-1.278c2.22.34 4.438.766 6.657 1.278C288.523 23.652 444.254 73.23 444.254 221.37c0 0 8.535 68.606-85.332 102.91zm0 0" fill="#e7ebf4"/><path d="M454.066 274.277c-12.03 17.832-33.023 36.524-69.886 50.004H94.047a138.486 138.486 0 01-68.012-47.445c-.68-.852-1.277-1.707-1.875-2.559l1.621-1.195c0-29.355 57.77-54.36 138.922-64a640.098 640.098 0 0174.41-4.266c17.067 0 33.621.68 49.492 1.875 65.88 4.95 119.895 19.715 146.262 39.254a35.438 35.438 0 0117.578 27.137zm0 0" fill="#b2cdf8"/><path d="M438.793 257.21c-12.031 17.833-33.023 36.52-69.887 50.005H78.773a158.378 158.378 0 01-52.738-30.38c-.68-.85-1.277-1.706-1.875-2.558l1.621-1.195c0-29.355 57.77-54.36 138.922-64a640.098 640.098 0 0174.41-4.266c17.067 0 33.621.68 49.492 1.875 65.88 4.95 119.895 19.715 146.262 39.254a23.718 23.718 0 012.305 10.07zM119.648 132.281c-.011 24.5-16.093 46.09-39.566 53.114-23.473 7.023-48.77-2.184-62.238-22.649a187.602 187.602 0 0158.965-84.48c25.093 5.867 42.84 28.246 42.84 54.015zm0 0" fill="#e7ebf4"/><path d="M290.313 192.016c0 4.941-.57 9.867-1.708 14.675a659.595 659.595 0 00-49.492-1.875 640.098 640.098 0 00-74.41 4.266 59.786 59.786 0 01-2.39-17.066 64 64 0 01128 0zM395.445 73.402c-12.433 27.442-42.336 42.48-71.78 36.11-29.446-6.375-50.446-32.438-50.419-62.563a62.308 62.308 0 017.68-30.207 345.996 345.996 0 01114.52 56.66zm0 0" fill="#e7ebf4"/><path d="M468.402 200.207a46.01 46.01 0 01-20.222 4.61 48.575 48.575 0 01-12.203-1.622 46.89 46.89 0 11-19.027-80.3 45.34 45.34 0 0117.405-9.899h.086a175.073 175.073 0 0133.961 87.211zm0 0" fill="#b2cdf8"/><path d="M444.086 200.207a38.634 38.634 0 01-8.11 2.988 46.89 46.89 0 11-19.027-80.3 174.433 174.433 0 0127.137 77.312zM230.582 25.613c0 24.907-17.918 46.2-42.453 50.457-24.54 4.254-48.582-9.765-56.961-33.218a393.982 393.982 0 0188.66-32.086 64.046 64.046 0 018.106-1.45 51.36 51.36 0 012.648 16.297zm0 0" fill="#e7ebf4"/><path d="M239.113 503.48c-4.351 0-8.617-.085-12.715-.253-139.093-5.122-151.976-94.805-135.082-136.278 17.325-42.668 17.325-102.402 17.325-102.402l-1.88-4.18c20.31-9.129 57.344-19.969 119.552-21.25h.171c4.098-.082 8.278-.168 12.63-.168 69.886 0 110.507 11.692 132.265 21.418l-1.875 4.18s0 59.734 17.406 102.402c17.41 42.664 3.242 136.531-147.797 136.531zm0 0" fill="#b2cdf8"/><path d="M226.398 503.227C87.305 498.105 74.422 408.422 91.316 366.949c17.325-42.668 17.325-102.402 17.325-102.402l-1.88-4.18c20.31-9.129 57.344-19.969 119.552-21.25h.171c62.121 1.281 99.07 12.121 119.465 21.25l-1.875 4.18s0 59.734 17.406 102.402c16.813 41.473 4.012 131.156-135.082 136.278zm0 0" fill="#e7ebf4"/><path d="M205.152 298.684c0 14.136-11.464 25.597-25.601 25.597s-25.602-11.46-25.602-25.597c0-14.141 11.465-25.602 25.602-25.602s25.601 11.461 25.601 25.602zm119.465 0c0 14.136-11.46 25.597-25.597 25.597-14.141 0-25.602-11.46-25.602-25.597 0-14.141 11.46-25.602 25.602-25.602 14.136 0 25.597 11.461 25.597 25.602zm0 0" fill="#e7ebf4"/><path d="M290.484 349.883c4.711 0 8.536 3.82 8.536 8.531v17.066c0 32.993-26.747 59.735-59.735 59.735-32.992 0-59.734-26.742-59.734-59.735v-17.066c0-4.71 3.82-8.531 8.535-8.531zm0 0" fill="#b2cdf8"/><path d="M293.984 399.46c-9.496 21.74-30.976 35.782-54.699 35.755-23.695-.067-45.129-14.078-54.7-35.754a93.324 93.324 0 0154.7-15.445 108.6 108.6 0 0116.043 1.109 83.669 83.669 0 0138.656 14.336zm0 0" fill="#b2cdf8"/><path d="M264.883 390.926c-9.492 21.742-30.973 35.781-54.695 35.758-.57.011-1.141-.016-1.708-.086a59.173 59.173 0 01-23.894-27.137 93.324 93.324 0 0154.7-15.445 108.6 108.6 0 0116.042 1.109 58.071 58.071 0 019.555 5.8zm0 0" fill="#e7ebf4"/><path d="M24.57 274.84a108.592 108.592 0 0018.45 20.555l1.27 1.093c2.226 1.887 4.538 3.762 7.046 5.598.18.129.367.246.539.375 2.27 1.64 4.684 3.262 7.195 4.855.852.524 1.637 1.036 2.473 1.536a148.897 148.897 0 008.277 4.738l1.282.664a153.802 153.802 0 008.949 4.27c.972.433 1.965.851 2.96 1.296 3.516 1.516 7.145 3.012 11 4.418h8.97a217.155 217.155 0 01-11.7 42.668c-16.894 41.473-4.008 131.157 135.082 136.278 4.098.171 8.364.254 12.715.254s8.746-.094 12.953-.254H252c-139.094-5.079-151.98-94.762-135.082-136.235a217.697 217.697 0 0011.7-42.668h-8.97c-3.859-1.406-7.484-2.902-11-4.418-1-.43-1.988-.855-2.96-1.3a238.816 238.816 0 01-8.954-4.266l-1.28-.664a150.33 150.33 0 01-8.278-4.738c-.852-.5-1.653-1.016-2.473-1.536a145.904 145.904 0 01-7.195-4.855c-.168-.129-.356-.246-.535-.375-2.508-1.836-4.82-3.711-7.051-5.598l-1.305-1.136a108.656 108.656 0 01-18.484-20.555c-.125-.188-.281-.375-.406-.563a84.421 84.421 0 01-15.465-52.906c-.102-19.883 3-39.652 9.183-58.547v-.078c.153-.476.356-.914.52-1.383a169.226 169.226 0 013.363-8.976c.426-1.067.852-2.176 1.277-3.235a173.565 173.565 0 0111.555-22.375 83.122 83.122 0 011.621-2.515 218.993 218.993 0 015.242-7.844c.672-.945 1.372-1.879 2.07-2.816a188.092 188.092 0 015.489-7.09c.7-.856 1.418-1.707 2.133-2.563a206.088 206.088 0 016.16-6.96c.64-.692 1.266-1.391 1.914-2.067a207.98 207.98 0 017.363-7.371c.383-.367.75-.75 1.137-1.11A304.48 304.48 0 01193.98 26.434l1.254-.47a393.373 393.373 0 0110.618-3.804c.98-.344 1.902-.633 2.867-.957 2.234-.742 4.418-1.46 6.57-2.133a922.14 922.14 0 014.266-1.324 246.787 246.787 0 015.3-1.558 284.72 284.72 0 016.34-1.786l4.063-1.093c1.234-.313 2.437-.63 3.617-.922a401.155 401.155 0 016.555-1.594c2.039-.477 4.265-.855 6.332-1.219a83.393 83.393 0 00-23.828-.215h-.254c-.403.059-.805.067-1.196.13-2.218.34-4.437.765-6.656 1.277a379.71 379.71 0 00-6.555 1.597c-1.175.29-2.378.606-3.617.922l-4.062 1.09a340.22 340.22 0 00-6.34 1.785c-1.707.496-3.488 1.008-5.297 1.563-1.402.425-2.824.867-4.27 1.32-2.148.676-4.332 1.39-6.57 2.133-.965.324-1.887.617-2.867.957a459.442 459.442 0 00-10.613 3.805l-1.258.472A304.403 304.403 0 0067.688 86.414c-.383.36-.75.742-1.137 1.11a211.453 211.453 0 00-7.364 7.374c-.648.672-1.269 1.372-1.91 2.063a194.486 194.486 0 00-6.16 6.965c-.719.851-1.433 1.707-2.133 2.558a181.258 181.258 0 00-5.488 7.094c-.7.938-1.398 1.867-2.074 2.817a166.779 166.779 0 00-5.238 7.84c-.54.855-1.102 1.706-1.621 2.519a173.28 173.28 0 00-11.555 22.371c-.453 1.059-.856 2.168-1.281 3.234a169.227 169.227 0 00-3.364 8.977c-.16.473-.367.906-.52 1.383l.052.078a185.266 185.266 0 00-9.18 58.574 84.418 84.418 0 0015.46 52.906c.11.188.266.375.395.563zm0 0" fill="#fff"/><path d="M384.137 332.816a8.534 8.534 0 01-2.934-16.546c85.863-31.387 80.086-91.375 79.793-93.918a10.895 10.895 0 01-.059-1.008c0-46.457-19.933-159.172-204.57-202.239a75.403 75.403 0 00-34.586 0C37.137 62.172 17.203 174.88 17.203 221.344c0 .355-.023.707-.066 1.058-.282 2.493-6.059 62.48 79.804 93.868a8.538 8.538 0 012.535 14.563 8.532 8.532 0 01-8.406 1.46C39.793 313.52 17.785 284.508 8.348 263.43a89.448 89.448 0 01-8.211-42.52C.445 65.297 166.863 14.367 217.898 2.465a92.23 92.23 0 0142.352 0c51.031 11.945 217.445 62.84 217.754 218.453a89.445 89.445 0 01-8.207 42.52c-9.387 21.07-31.438 50.117-82.723 68.867a8.658 8.658 0 01-2.937.511zm0 0" fill="#51a1ff"/><path d="M99.184 370.164a81.44 81.44 0 00-2.399 49.16 83.35 83.35 0 0026.13 42.09 128.207 128.207 0 0053.991 26.453 268.788 268.788 0 0062.164 7.082v17.067a285.323 285.323 0 01-66.355-7.586 144.985 144.985 0 01-61.106-30.235 100.492 100.492 0 01-31.359-50.644 98.135 98.135 0 013.129-59.82zm0 0" fill="#fff"/><g fill="#51a1ff"><path d="M86.172 408.871a8.746 8.746 0 005.648-2.984 8.012 8.012 0 002.399-5.66 77.088 77.088 0 015.008-30.028l-15.805-6.433a93.787 93.787 0 00-6.27 36.777 8.942 8.942 0 002.696 6.36 8.269 8.269 0 006.324 1.968zM239.07 512.016v-17.067a268.56 268.56 0 01-62.164-7.066 128.207 128.207 0 01-53.992-26.453l-5.777-5.258a8.535 8.535 0 00-12.348 11.785l6.828 6.254a144.91 144.91 0 0061.106 30.219 285.257 285.257 0 0066.347 7.586zm-138.625-81.707a9.364 9.364 0 00-4.394-4.266l-1.465-.531a6.987 6.987 0 00-1.656-.246 5.816 5.816 0 00-1.606 0 14.16 14.16 0 00-1.707.332 8.692 8.692 0 00-5.117 4.316 6.732 6.732 0 00-.648 3.414 9.801 9.801 0 005.57 8.535 7.043 7.043 0 003.336.426 8.35 8.35 0 003.234-.906 9.979 9.979 0 004.266-4.871 8.256 8.256 0 00.187-6.203zm0 0"/><path d="M91.281 375.48a8.534 8.534 0 01-7.902-11.75c16.574-40.652 16.762-98.601 16.762-99.183a8.533 8.533 0 0117.066 0c0 2.512-.207 61.91-18.023 105.617a8.529 8.529 0 01-7.903 5.316zM239.07 512.016a8.533 8.533 0 01-8.53-8.536c0-4.71 3.82-8.53 8.53-8.53 80.504 0 115.703-27.216 131.055-50.052a82.108 82.108 0 008.832-74.734c-17.809-43.707-18.023-103.105-18.023-105.617 0-4.711 3.824-8.531 8.535-8.531a8.533 8.533 0 018.535 8.53c0 .583.219 58.61 16.75 99.184a99.576 99.576 0 01-10.473 90.684c-17.664 26.285-57.187 57.602-145.21 57.602zm0 0"/><path d="M452.402 281.613a8.532 8.532 0 01-8.53-8.531c0-28.254-84.106-59.734-204.802-59.734-120.695 0-204.8 31.48-204.8 59.734a8.532 8.532 0 01-8.532 8.531 8.533 8.533 0 01-8.535-8.531c0-49.887 114.348-76.8 221.867-76.8 107.52 0 221.868 26.913 221.868 76.8 0 4.711-3.82 8.531-8.536 8.531zm0 0"/><path d="M392.672 281.613a8.474 8.474 0 01-5.973-2.437c-.64-.59-35.004-31.696-147.629-31.696-113.144 0-147.293 31.387-147.625 31.704a8.533 8.533 0 01-12.03-.172 8.478 8.478 0 010-11.946c1.515-1.511 38.058-36.652 159.655-36.652 121.602 0 158.14 35.14 159.633 36.633a8.536 8.536 0 011.852 9.3 8.534 8.534 0 01-7.883 5.266zM64.137 196.281a63.879 63.879 0 01-53.461-28.844 8.53 8.53 0 01-.602-8.593 8.537 8.537 0 017.196-4.739 8.53 8.53 0 017.656 3.946c11.586 17.629 33.508 25.367 53.59 18.91 20.082-6.457 33.386-25.516 32.53-46.594-.859-21.078-15.675-38.988-36.218-43.789a8.535 8.535 0 013.867-16.59c31.598 7.446 52.618 37.371 48.899 69.621s-30.992 56.61-63.457 56.672zm100.523 21.332a8.528 8.528 0 01-8.183-6.11 68.526 68.526 0 01-2.739-19.487c.008-27.918 16.04-53.352 41.223-65.403 25.184-12.05 55.047-8.578 76.793 8.926 21.746 17.508 31.516 45.941 25.121 73.117a8.538 8.538 0 11-16.621-3.918 55.469 55.469 0 00-19.192-55.945 55.458 55.458 0 00-58.746-6.828 55.458 55.458 0 00-31.511 50.05 51.318 51.318 0 002.039 14.645 8.532 8.532 0 01-8.184 10.953zm172.543-98.133c-40.039-.046-72.484-32.492-72.531-72.53a71.108 71.108 0 018.746-34.333 8.534 8.534 0 1114.934 8.246 54.002 54.002 0 00-6.614 26.086c-.02 26.098 18.168 48.672 43.672 54.2 25.504 5.53 51.41-7.485 62.2-31.247a8.539 8.539 0 0111.285-4.289c4.3 1.934 6.222 6.989 4.289 11.285-11.723 25.922-37.532 42.579-65.98 42.582zm110.934 93.868c-27.477.011-50.82-20.094-54.883-47.27-4.059-27.176 12.39-53.23 38.672-61.25a8.536 8.536 0 0110.96 10.125 8.543 8.543 0 01-6.03 6.211c-18.188 5.566-29.563 23.61-26.735 42.422 2.824 18.809 18.996 32.719 38.016 32.695a37.55 37.55 0 0016.504-3.746 8.536 8.536 0 018.515.613 8.54 8.54 0 013.723 7.68 8.526 8.526 0 01-4.79 7.067 54.23 54.23 0 01-23.952 5.453zm-268.801-128c-25.223-.043-47.715-15.883-56.25-39.621-1.57-4.43.738-9.301 5.168-10.883a8.53 8.53 0 0110.898 5.133c7.723 22.27 32.036 34.058 54.305 26.34 22.266-7.723 34.059-32.036 26.336-54.305a8.552 8.552 0 011.715-8.371 8.549 8.549 0 0114.5 2.968 59.734 59.734 0 01-56.672 78.738zm59.949 358.402c-27.105-.004-51.644-16.04-62.523-40.867a67.464 67.464 0 01-5.742-27.403v-25.597a8.533 8.533 0 018.53-8.535h119.47c4.71 0 8.53 3.82 8.53 8.535v25.597c0 37.704-30.562 68.27-68.265 68.27zm-51.2-85.336v17.066a50.417 50.417 0 004.31 20.532 51.196 51.196 0 0046.886 30.633c20.32 0 38.719-12.02 46.887-30.633a50.553 50.553 0 004.316-20.532v-17.066zm0 0"/><path d="M239.285 443.75c-27.105-.004-51.644-16.04-62.523-40.867a8.537 8.537 0 012.687-10.242 101.458 101.458 0 0159.836-17.16 101.47 101.47 0 0159.828 17.16 8.537 8.537 0 012.688 10.242c-10.88 24.824-35.414 40.86-62.516 40.867zm-43.52-41.336a51.2 51.2 0 0087.04 0 93.027 93.027 0 00-43.52-9.867 93.005 93.005 0 00-43.52 9.867zm-16.215-78.133c-14.136 0-25.6-11.46-25.6-25.597 0-14.141 11.464-25.602 25.6-25.602s25.602 11.461 25.602 25.602c0 14.136-11.464 25.597-25.601 25.597zm0-34.133a8.533 8.533 0 00-8.53 8.536c0 4.71 3.82 8.53 8.53 8.53a8.533 8.533 0 100-17.066zm119.47 34.133c-14.141 0-25.602-11.46-25.602-25.597 0-14.141 11.46-25.602 25.602-25.602 14.136 0 25.597 11.461 25.597 25.602 0 14.136-11.46 25.597-25.597 25.597zm0-34.133a8.534 8.534 0 10-.003 17.068 8.534 8.534 0 00.003-17.068zm0 0"/></g></svg>