<svg id="Capa_1" enable-background="new 0 0 512 512" height="512" viewBox="0 0 512 512" width="512" xmlns="http://www.w3.org/2000/svg" xmlns:xlink="http://www.w3.org/1999/xlink"><linearGradient id="SVGID_1_" gradientTransform="matrix(1 0 0 -1 0 514)" gradientUnits="userSpaceOnUse" x1="137.201" x2="425.883" y1="101.915" y2="445.954"><stop offset="0" stop-color="#d2deff" stop-opacity="0"/><stop offset="1" stop-color="#b7c5ff"/></linearGradient><path d="m20.337 133.512c-23.967 39.398-26.493 107.613-8.937 150.256 15.377 37.351 45.966 72.409 86.12 76.801 14.766 1.615 29.858-1.024 44.472 1.638 50.258 9.152 68.952 71.09 108.01 104.014 27.183 22.913 64.898 31.022 100.174 26.607 35.276-4.414 68.302-20.363 97.376-40.824 22.957-16.157 44.436-36.022 55.764-61.707 23.744-53.839-4.19-118.501-47.587-158.239-13.516-12.377-28.581-23.294-39.875-37.727-11.293-14.434-18.48-33.695-13.099-51.214 4.293-13.977 15.849-24.812 20.227-38.763 5.958-18.984-3.035-40.281-17.802-53.616s-34.308-20.039-53.666-24.64c-81.103-19.281-258.823-11.524-331.177 107.414z" fill="url(#SVGID_1_)"/><path d="m455.47 452.133h-398.94c-8.284 0-15-6.716-15-15v-314.266c0-8.284 6.716-15 15-15h398.94c8.284 0 15 6.716 15 15v314.266c0 8.284-6.715 15-15 15z" fill="#2626bc" opacity=".1"/><path d="m470.47 98.87v314.26c0 8.29-6.72 15-15 15h-398.94c-8.28 0-15-6.71-15-15v-314.26c0-8.29 6.72-15 15-15h398.94c8.28 0 15 6.71 15 15z" fill="#fff"/><path d="m447.32 400.24c-5.57-7.54-14.1-12.35-23.41-13.19-.97-.08-1.93-.13-2.89-.13-1.41 0-2.82.1-4.21.28 3.28-3.59 6.83-6.77 10.67-9.52 2.25-1.6 2.77-4.73 1.16-6.97-1.61-2.25-4.73-2.77-6.97-1.16-2.55 1.82-4.98 3.82-7.3 5.96-.24-2.09-.66-4.18-1.31-6.22-2.81-8.91-9.34-16.22-17.91-20.03-2.3-1.03-5.01-.17-6.31 1.99-4.84 8.03-5.99 17.76-3.17 26.69 2.24 7.09 6.82 13.14 12.89 17.24-5.61 9.43-10.05 20.43-13.26 32.95h10.35c2.01-7.34 4.5-14.05 7.42-20.16 5.1 4.35 11.47 7.08 18.27 7.69.97.09 1.95.13 2.92.13 8.31 0 16.37-3.18 22.47-8.95 1.83-1.74 2.08-4.56.59-6.6zm-43.93-13.87c-3.84-2.83-6.73-6.82-8.19-11.44-1.45-4.62-1.38-9.54.14-14.06 3.84 2.83 6.73 6.82 8.19 11.43 1.45 4.62 1.38 9.54-.14 14.07zm18.84 19.33c-4.82-.43-9.34-2.4-12.92-5.54 4.09-2.45 8.89-3.58 13.7-3.15 2.41.21 4.75.81 6.93 1.75s4.2 2.22 6 3.79c-4.09 2.46-8.89 3.58-13.71 3.15z" fill="#2626bc"/><path d="m333.833 231.831c-14.058-16.271-27.092-45.681-33.701-78.651h-10.009c6.399 33.732 19.346 65.747 36.143 85.188 12.95 14.989 18.323 38.402 13.69 59.637-.25 1.135-.531 2.255-.833 3.365 1.843-.916 3.75-1.695 5.717-2.29 1.742-.531 3.53-.916 5.34-1.178 4.435-23.61-1.871-49.316-16.347-66.071z" fill="#2626bc"/><path d="m470.47 153.18v-54.313c0-8.284-6.716-15-15-15h-398.94c-8.284 0-15 6.716-15 15v54.313z" fill="#6583fe"/><path d="m415.255 236.978c-23.718-87.182-75.813-60.383-82.003-21.545-8.729 54.771 27.296 138.791 12.73 212.7h22.932c35.606-56.793 59.25-143.707 46.341-191.155z" fill="#6583fe"/><path d="m455.47 78.867h-398.941c-11.028 0-20 8.972-20 20v314.266c0 11.028 8.972 20 20 20h398.942c11.028 0 20-8.972 19.999-20v-.003-314.26-.003c0-11.028-8.972-20-20-20zm-173.195 280.804c1.66-.257 3.291-.563 4.909-.89 4.878 2.755 10.405 4.229 16.046 4.229.97 0 1.94-.05 2.92-.13 5.84-.53 11.37-2.61 16.05-5.95 1.13 7.76 1.77 15.45 2.07 22.78-5.15-2.39-10.89-3.43-16.65-2.91-4.66.42-9.12 1.83-13.11 4.08s-7.52 5.34-10.3 9.11c-1.5 2.03-1.24 4.86.59 6.6 6.1 5.77 14.16 8.95 22.47 8.95.97 0 1.95-.04 2.92-.13 5.07-.45 9.89-2.09 14.14-4.69-.329 9.359-1.055 17.167-1.654 22.41h-175.119c7.821-37.298 34.906-72.172 89.4-63.997 16.48 2.477 31.73 2.658 45.318.538zm9.275-9.901c3.59-3.15 8.1-5.11 12.92-5.55 2.36-.21 4.71-.05 6.98.47 2.064.455 4.059 1.225 5.928 2.25.268.147.541.282.802.44-3.294 2.881-7.376 4.753-11.75 5.385-.392.057-.784.119-1.181.155-3.4.3-6.79-.17-9.93-1.34-1.309-.48-2.569-1.09-3.769-1.81zm30.67 40.14c-3.59 3.14-8.1 5.11-12.93 5.54-4.82.43-9.61-.69-13.7-3.15 3.59-3.14 8.11-5.11 12.92-5.54 4.82-.43 9.62.7 13.71 3.15zm-275.691 23.223v-314.266c0-5.514 4.486-10 10-10l398.941.003c5.514 0 10 4.486 10 10v314.26c0 5.514-4.486 10-10 10h-122.7c.883-7.777 1.911-20.08 1.8-34.57 9.56-.66 18.63-4.73 25.48-11.58 8.09-8.09 12.32-19.29 11.61-30.72-.16-2.52-2.17-4.53-4.69-4.68-11.44-.69-22.62 3.54-30.7 11.62-1.4 1.39-2.67 2.88-3.82 4.44-.72-5.22-1.61-10.25-2.67-15.09 8.04-1.57 15.44-5.84 20.91-12.2 6.78-7.88 9.96-18.25 8.71-28.43-.31-2.57-2.56-4.45-5.11-4.39-1.381.039-2.751.174-4.11.372-1.81.263-3.598.647-5.34 1.178-1.968.595-3.874 1.374-5.717 2.29-4.385 2.179-8.366 5.218-11.633 9.02-2.08 2.42-3.82 5.07-5.19 7.87-2.13-5.16-4.53-10-7.19-14.48 6.11-4.1 10.71-10.17 12.95-17.27 2.82-8.93 1.66-18.66-3.17-26.69-1.3-2.17-4.01-3.02-6.32-1.99-8.56 3.81-15.09 11.11-17.9 20.03-.65 2.04-1.08 4.12-1.31 6.22-2.32-2.15-4.75-4.14-7.3-5.96-2.24-1.61-5.36-1.09-6.97 1.15-1.61 2.25-1.09 5.37 1.15 6.98 3.94 2.81 7.48 6.01 10.67 9.51-2.33-.3-4.71-.36-7.09-.14-9.31.83-17.85 5.64-23.41 13.19-1.5 2.03-1.24 4.86.59 6.6 6.1 5.77 14.16 8.95 22.47 8.95.97 0 1.95-.04 2.92-.13 6.79-.61 13.16-3.34 18.26-7.69 2.751 5.779 4.971 11.873 6.786 18.109.151.519.319 1.031.464 1.551-.569-.211-1.144-.406-1.724-.586-4.033-1.25-8.303-1.73-12.596-1.354-4.66.42-9.12 1.83-13.12 4.08-3.99 2.26-7.51 5.34-10.29 9.12-.565.764-.881 1.642-.958 2.532-12.212 1.724-25.906 1.486-40.771-.747-29.97-4.498-55.548 2.651-73.989 20.669-17.467 17.065-24.375 39.251-27.09 53.219h-80.833c-5.514 0-10-4.486-10-10zm288.191-34.603c.67-6.86 3.69-13.34 8.62-18.26 4.92-4.93 11.4-7.95 18.26-8.62-.67 6.85-3.69 13.33-8.62 18.26-4.94 4.93-11.41 7.95-18.26 8.62zm-6.15-45.94c.04-.58.1-1.16.19-1.74.7-5.08 2.87-9.94 6.31-13.94 1.67-1.95 3.6-3.63 5.7-5.01 2.029-1.33 4.223-2.377 6.52-3.117.759-.245 1.53-.456 2.31-.633-.4 5.7-2.66 11.23-6.49 15.68-1.951 2.266-4.235 4.163-6.739 5.65-2.425 1.44-5.056 2.495-7.801 3.11zm-18.23-37.66c-1.52-4.52-1.6-9.45-.14-14.06s4.35-8.6 8.19-11.43c1.52 4.52 1.59 9.44.13 14.06-1.45 4.61-4.34 8.6-8.18 11.43zm-5.92 13.8c-3.59 3.14-8.1 5.1-12.92 5.54-4.82.43-9.62-.7-13.71-3.15 3.59-3.15 8.11-5.11 12.92-5.54 4.82-.44 9.62.69 13.71 3.15z" fill="#2626bc"/><circle cx="85.623" cy="120.768" fill="#fff" r="10.901"/><circle cx="120.424" cy="120.768" fill="#fff" r="10.901"/><circle cx="155.224" cy="120.768" fill="#fff" r="10.901"/><path d="m432.277 133.015h-136.158v-24.495h136.159c2.761 0 5 2.239 5 5v14.496c-.001 2.761-2.239 4.999-5.001 4.999z" fill="#fff"/><path d="m296.789 108.831c-5.286-5.286-13.887-5.286-19.173 0s-5.286 13.887 0 19.173c4.037 4.037 10.003 4.98 14.953 2.852l4.348 4.348c1.952 1.952 5.119 1.952 7.071 0 1.953-1.952 1.953-5.119 0-7.071l-4.348-4.348c2.129-4.951 1.186-10.917-2.851-14.954zm-12.102 7.071c1.387-1.387 3.644-1.387 5.031 0s1.387 3.644 0 5.031-3.644 1.387-5.031 0-1.387-3.644 0-5.031z" fill="#2626bc"/><path d="m236.852 326.968h-137.111c-5.523 0-10-4.477-10-10v-5.81c0-5.523 4.477-10 10-10h137.11c5.523 0 10 4.477 10 10v5.81c.001 5.523-4.477 10-9.999 10z" fill="#6583fe"/><g fill="#2626bc"><path d="m199.422 264.074h-104.681c-2.761 0-5 2.239-5 5s2.239 5 5 5h104.681c2.761 0 5-2.239 5-5 0-2.762-2.239-5-5-5z"/><path d="m175.422 244.646h-80.681c-2.761 0-5 2.239-5 5s2.239 5 5 5h80.681c2.761 0 5-2.239 5-5s-2.239-5-5-5z"/><path d="m106.422 221.301h-11.681c-2.761 0-5 2.239-5 5s2.239 5 5 5h11.681c2.761 0 5-2.239 5-5 0-2.762-2.239-5-5-5z"/><path d="m166.422 184.217h-71.681c-2.761 0-5 2.239-5 5s2.239 5 5 5h71.681c2.761 0 5-2.239 5-5s-2.239-5-5-5z"/><path d="m442.277 206.277v-17.681c0-2.761-2.239-5-5-5s-5 2.239-5 5v17.681c0 2.761 2.239 5 5 5s5-2.239 5-5z"/><path d="m442.277 263.486v-17.681c0-2.761-2.239-5-5-5s-5 2.239-5 5v17.681c0 2.761 2.239 5 5 5s5-2.238 5-5z"/><path d="m442.277 320.696v-17.681c0-2.761-2.239-5-5-5s-5 2.239-5 5v17.681c0 2.761 2.239 5 5 5s5-2.239 5-5z"/><path d="m262.926 266.09c-11.824 0-21.444-9.62-21.444-21.444s9.62-21.444 21.444-21.444 21.444 9.62 21.444 21.444-9.62 21.444-21.444 21.444zm0-32.888c-6.311 0-11.444 5.134-11.444 11.444 0 6.311 5.134 11.444 11.444 11.444 6.311 0 11.444-5.134 11.444-11.444 0-6.311-5.134-11.444-11.444-11.444z"/><path d="m366.338 199.219c-2.762 0-5.002-2.239-5.002-5.002 0-2.762 2.239-5.002 5.002-5.002 2.762 0 5.002 2.239 5.002 5.002 0 2.762-2.24 5.002-5.002 5.002z"/><path d="m389.426 199.219c-2.762 0-5.002-2.239-5.002-5.002 0-2.762 2.239-5.002 5.002-5.002 2.762 0 5.002 2.239 5.002 5.002-.001 2.762-2.24 5.002-5.002 5.002z"/><path d="m412.514 199.219c-2.762 0-5.002-2.239-5.002-5.002 0-2.762 2.239-5.002 5.002-5.002s5.002 2.239 5.002 5.002c-.001 2.762-2.24 5.002-5.002 5.002z"/><path d="m377.882 180.636c-2.762 0-5.002-2.239-5.002-5.002 0-2.762 2.239-5.002 5.002-5.002 2.762 0 5.002 2.239 5.002 5.002 0 2.762-2.24 5.002-5.002 5.002z"/><path d="m400.97 180.636c-2.762 0-5.002-2.239-5.002-5.002 0-2.762 2.239-5.002 5.002-5.002 2.762 0 5.002 2.239 5.002 5.002-.001 2.762-2.24 5.002-5.002 5.002z"/><path d="m377.882 217.802c-2.762 0-5.002-2.239-5.002-5.002 0-2.762 2.239-5.002 5.002-5.002 2.762 0 5.002 2.239 5.002 5.002 0 2.762-2.24 5.002-5.002 5.002z"/><path d="m400.97 217.802c-2.762 0-5.002-2.239-5.002-5.002 0-2.762 2.239-5.002 5.002-5.002 2.762 0 5.002 2.239 5.002 5.002-.001 2.762-2.24 5.002-5.002 5.002z"/></g><path d="m85.623 486.713c-7.88 0-14.291-6.411-14.291-14.292 0-7.88 6.411-14.291 14.291-14.291 7.881 0 14.292 6.411 14.292 14.291 0 7.881-6.411 14.292-14.292 14.292zm0-18.583c-2.366 0-4.291 1.925-4.291 4.291s1.925 4.292 4.291 4.292 4.292-1.926 4.292-4.292-1.926-4.291-4.292-4.291z" fill="#6583fe"/><path d="m172.623 59.228c-7.88 0-14.291-6.411-14.291-14.292 0-7.88 6.411-14.291 14.291-14.291 7.881 0 14.292 6.411 14.292 14.291 0 7.881-6.411 14.292-14.292 14.292zm0-18.583c-2.366 0-4.291 1.925-4.291 4.291s1.925 4.292 4.291 4.292 4.292-1.926 4.292-4.292-1.926-4.291-4.292-4.291z" fill="#6583fe"/><path d="m246.852 491.713c-2.762 0-5-2.238-5-5 0-3.309-2.691-6-6-6-2.762 0-5-2.238-5-5s2.238-5 5-5c3.309 0 6-2.691 6-6 0-2.762 2.238-5 5-5s5 2.238 5 5c0 3.309 2.691 6 6 6 2.762 0 5 2.238 5 5s-2.238 5-5 5c-3.309 0-6 2.691-6 6 0 2.762-2.239 5-5 5z" fill="#6583fe"/><path d="m219.324 61.579c-2.762 0-5-2.238-5-5 0-3.309-2.692-6-6.001-6-2.762 0-5-2.238-5-5s2.238-5 5-5c3.309 0 6.001-2.691 6.001-6 0-2.762 2.238-5 5-5s5 2.238 5 5c0 3.309 2.691 6 5.999 6 2.762 0 5 2.238 5 5s-2.238 5-5 5c-3.308 0-5.999 2.691-5.999 6 0 2.762-2.238 5-5 5z" fill="#6583fe"/><path d="m291.55 476.13c-2.762 0-5-2.238-5-5 0-3.309-2.691-6-6-6-2.762 0-5-2.238-5-5s2.238-5 5-5c3.309 0 6-2.691 6-6 0-2.762 2.238-5 5-5s5 2.238 5 5c0 3.309 2.691 6 6 6 2.762 0 5 2.238 5 5s-2.238 5-5 5c-3.309 0-6 2.691-6 6 0 2.762-2.239 5-5 5z" fill="#6583fe"/></svg>